<?xml version="1.0" encoding="UTF-8" standalone="no"?>
<!-- Created with Inkscape (http://www.inkscape.org/) -->

<svg
   xmlns:dc="http://purl.org/dc/elements/1.1/"
   xmlns:cc="http://creativecommons.org/ns#"
   xmlns:rdf="http://www.w3.org/1999/02/22-rdf-syntax-ns#"
   xmlns:svg="http://www.w3.org/2000/svg"
   xmlns="http://www.w3.org/2000/svg"
   xmlns:xlink="http://www.w3.org/1999/xlink"
   xmlns:sodipodi="http://sodipodi.sourceforge.net/DTD/sodipodi-0.dtd"
   xmlns:inkscape="http://www.inkscape.org/namespaces/inkscape"
   width="210mm"
   height="297mm"
   viewBox="0 0 744.09448819 1052.3622047"
   id="svg2"
   version="1.1"
   inkscape:version="0.91 r13725"
   sodipodi:docname="drawing.svg">
  <defs
     id="defs4">
    <inkscape:perspective
       sodipodi:type="inkscape:persp3d"
       inkscape:vp_x="-544.10759 : 752.28717 : 1"
       inkscape:vp_y="0 : 549.89391 : 0"
       inkscape:vp_z="1225.9397 : 752.28717 : 1"
       inkscape:persp3d-origin="340.91607 : 655.83924 : 1"
       id="perspective4258" />
    <linearGradient
       inkscape:collect="always"
       id="linearGradient4214">
      <stop
         style="stop-color:#000000;stop-opacity:1;"
         offset="0"
         id="stop4216" />
      <stop
         style="stop-color:#000000;stop-opacity:0;"
         offset="1"
         id="stop4218" />
    </linearGradient>
    <inkscape:perspective
       sodipodi:type="inkscape:persp3d"
       inkscape:vp_x="-502.10759 : 646.28718 : 1"
       inkscape:vp_y="0 : 549.89392 : 0"
       inkscape:vp_z="1267.9397 : 646.28718 : 1"
       inkscape:persp3d-origin="382.91607 : 549.83925 : 1"
       id="perspective3380" />
    <radialGradient
       inkscape:collect="always"
       xlink:href="#linearGradient4214"
       id="radialGradient4222"
       cx="372.04724"
       cy="67.678612"
       fx="372.04724"
       fy="67.678612"
       r="274.98242"
       gradientTransform="matrix(1,0,0,0.07092783,0,62.878315)"
       gradientUnits="userSpaceOnUse" />
  </defs>
  <sodipodi:namedview
     id="base"
     pagecolor="#ffffff"
     bordercolor="#666666"
     borderopacity="1.0"
     inkscape:pageopacity="0.0"
     inkscape:pageshadow="2"
     inkscape:zoom="0.5"
     inkscape:cx="85.900834"
     inkscape:cy="881.98578"
     inkscape:document-units="px"
     inkscape:current-layer="layer1"
     showgrid="false"
     inkscape:window-width="1366"
     inkscape:window-height="715"
     inkscape:window-x="0"
     inkscape:window-y="0"
     inkscape:window-maximized="1" />
  <metadata
     id="metadata7">
    <rdf:RDF>
      <cc:Work
         rdf:about="">
        <dc:format>image/svg+xml</dc:format>
        <dc:type
           rdf:resource="http://purl.org/dc/dcmitype/StillImage" />
        <dc:title></dc:title>
      </cc:Work>
    </rdf:RDF>
  </metadata>
  <g
     inkscape:label="Layer 1"
     inkscape:groupmode="layer"
     id="layer1">
    <rect
       style="fill:#ffff00;stroke:none;stroke-opacity:1"
       id="rect4307"
       width="878"
       height="1074"
       x="-68"
       y="-1.6377947" />
    <ellipse
       style="fill:#000080;stroke:none;stroke-opacity:1"
       id="path4305"
       cx="372.04724"
       cy="775.36218"
       rx="358"
       ry="237" />
    <ellipse
       style="fill:#00ffff;stroke:none;stroke-opacity:1"
       id="path4282"
       cx="372.04724"
       cy="272.36221"
       rx="340"
       ry="254" />
    <g
       sodipodi:type="inkscape:box3d"
       id="g3382"
       style="fill:none;fill-rule:evenodd;stroke:none;stroke-width:1px;stroke-linecap:butt;stroke-linejoin:round;stroke-opacity:1"
       inkscape:perspectiveID="#perspective3380"
       inkscape:corner0="0.43647582 : 0.72243087 : 0 : 1"
       inkscape:corner7="-0.046032725 : 0.56920944 : 0.25 : 1">
      <path
         sodipodi:type="inkscape:box3dside"
         id="path3394"
         style="fill:#e9e9ff;fill-rule:evenodd;stroke:none;stroke-width:1px;stroke-linecap:butt;stroke-linejoin:round;stroke-opacity:1"
         inkscape:box3dsidetype="11"
         d="m 285.05785,227.70758 315.46875,-71.48352 0,69.98157 -315.46875,51.46147 z"
         points="600.5266,156.22406 600.5266,226.20563 285.05785,277.6671 285.05785,227.70758 " />
      <path
         sodipodi:type="inkscape:box3dside"
         id="path3384"
         style="fill:#353564;fill-rule:evenodd;stroke:none;stroke-width:1px;stroke-linecap:butt;stroke-linejoin:round;stroke-opacity:1"
         inkscape:box3dsidetype="6"
         d="m 114,196.66503 0,58.65434 171.05785,22.34773 0,-49.95952 z"
         points="114,255.31937 285.05785,277.6671 285.05785,227.70758 114,196.66503 " />
      <path
         sodipodi:type="inkscape:box3dside"
         id="path3386"
         style="fill:#4d4d9f;fill-rule:evenodd;stroke:none;stroke-width:1px;stroke-linecap:butt;stroke-linejoin:round;stroke-opacity:1"
         inkscape:box3dsidetype="5"
         d="M 114,196.66503 425.62199,90.747233 600.5266,156.22406 285.05785,227.70758 Z"
         points="425.62199,90.747233 600.5266,156.22406 285.05785,227.70758 114,196.66503 " />
      <path
         sodipodi:type="inkscape:box3dside"
         id="path3392"
         style="fill:#afafde;fill-rule:evenodd;stroke:none;stroke-width:1px;stroke-linecap:butt;stroke-linejoin:round;stroke-opacity:1"
         inkscape:box3dsidetype="13"
         d="M 114,255.31937 425.62199,179.06843 600.5266,226.20563 285.05785,277.6671 Z"
         points="425.62199,179.06843 600.5266,226.20563 285.05785,277.6671 114,255.31937 " />
      <path
         sodipodi:type="inkscape:box3dside"
         id="path3390"
         style="fill:#d7d7ff;fill-rule:evenodd;stroke:none;stroke-width:1px;stroke-linecap:butt;stroke-linejoin:round;stroke-opacity:1"
         inkscape:box3dsidetype="14"
         d="m 425.62199,90.747233 0,88.321197 174.90461,47.1372 0,-69.98157 z"
         points="425.62199,179.06843 600.5266,226.20563 600.5266,156.22406 425.62199,90.747233 " />
      <path
         sodipodi:type="inkscape:box3dside"
         id="path3388"
         style="fill:#8686bf;fill-rule:evenodd;stroke:none;stroke-width:1px;stroke-linecap:butt;stroke-linejoin:round;stroke-opacity:1"
         inkscape:box3dsidetype="3"
         d="m 114,196.66503 311.62199,-105.917797 0,88.321197 L 114,255.31937 Z"
         points="425.62199,90.747233 425.62199,179.06843 114,255.31937 114,196.66503 " />
    </g>
    <text
       xml:space="preserve"
       style="font-style:normal;font-weight:normal;font-size:40px;line-height:125%;font-family:sans-serif;letter-spacing:0px;word-spacing:0px;fill:#501616;fill-opacity:1;stroke:none;stroke-width:1px;stroke-linecap:butt;stroke-linejoin:miter;stroke-opacity:1;"
       x="94.928101"
       y="78.362206"
       id="text3410"
       sodipodi:linespacing="125%"><tspan
         sodipodi:role="line"
         id="tspan3412"
         x="94.928101"
         y="78.362206"
         style="fill:#501616;stroke:none;stroke-opacity:1;">Server- A remote Computer</tspan></text>
    <path
       style="fill:#ffff00;stroke:none;stroke-opacity:1"
       id="path4264"
       d="m 410.6318,207.74514 c -5.21474,3.02659 -10.26792,6.22594 -14.6838,10.34859 -4.2223,4.96039 -7.70579,10.51528 -11.36351,15.89927 -3.41192,4.75979 -5.71274,9.99056 -6.84061,15.71366 -0.97893,5.06671 -0.46092,10.04059 1.01977,14.93629 2.38441,5.81324 6.22579,10.58026 11.57392,13.83906 5.32541,3.77079 11.41269,5.6832 17.77319,6.74502 5.28413,0.29857 10.46146,1.36564 15.7175,1.93614 0.85509,0.18653 1.71018,0.37307 2.56527,0.5596 0,0 -24.06472,16.79842 -24.06472,16.79842 l 0,0 c -0.81201,-0.13237 -1.62403,-0.26475 -2.43605,-0.39712 -5.27456,-0.6815 -10.52998,-1.49884 -15.80652,-2.15408 -6.53992,-1.51056 -12.72966,-3.92291 -18.30868,-7.72744 -5.67889,-3.92442 -9.82563,-9.20297 -12.66845,-15.51629 -1.7481,-5.25807 -2.66901,-10.63366 -1.71289,-16.16335 0.94012,-6.11624 2.91711,-11.77259 6.49538,-16.89935 3.644,-5.50496 7.3827,-10.94713 11.128,-16.38173 4.01547,-4.47774 8.82124,-7.79229 13.95626,-10.86716 0,0 27.65594,-10.66953 27.65594,-10.66953 z"
       inkscape:connector-curvature="0" />
    <text
       xml:space="preserve"
       style="font-style:normal;font-weight:normal;font-size:40px;line-height:125%;font-family:sans-serif;letter-spacing:0px;word-spacing:0px;fill:#000080;fill-opacity:1;stroke:none;stroke-width:1px;stroke-linecap:butt;stroke-linejoin:miter;stroke-opacity:1;"
       x="407.47308"
       y="293.85464"
       id="text4224"
       sodipodi:linespacing="125%"><tspan
         sodipodi:role="line"
         id="tspan4226"
         x="407.47308"
         y="293.85464"
         style="font-size:30px;fill:#000080;">mySQL Database</tspan></text>
    <text
       xml:space="preserve"
       style="font-style:normal;font-weight:normal;font-size:35px;line-height:125%;font-family:sans-serif;letter-spacing:0px;word-spacing:0px;fill:#000000;fill-opacity:1;stroke:none;stroke-width:1px;stroke-linecap:butt;stroke-linejoin:miter;stroke-opacity:1;"
       x="304"
       y="307.36221"
       id="text4228"
       sodipodi:linespacing="125%"><tspan
         sodipodi:role="line"
         id="tspan4230"
         x="304"
         y="307.36221" /></text>
    <text
       xml:space="preserve"
       style="font-style:normal;font-weight:normal;font-size:30px;line-height:125%;font-family:sans-serif;letter-spacing:0px;word-spacing:0px;fill:#000080;fill-opacity:1;stroke:none;stroke-width:1px;stroke-linecap:butt;stroke-linejoin:miter;stroke-opacity:1;"
       x="405.87927"
       y="339.59857"
       id="text4232"
       sodipodi:linespacing="125%"><tspan
         sodipodi:role="line"
         id="tspan4234"
         x="405.87927"
         y="339.59857">PHP Prog Lang</tspan></text>
    <text
       xml:space="preserve"
       style="font-style:normal;font-weight:normal;font-size:30px;line-height:125%;font-family:sans-serif;letter-spacing:0px;word-spacing:0px;fill:#00ffff;fill-opacity:1;stroke:none;stroke-width:1px;stroke-linecap:butt;stroke-linejoin:miter;stroke-opacity:1;"
       x="533.15137"
       y="831.2323"
       id="text4236"
       sodipodi:linespacing="125%"><tspan
         sodipodi:role="line"
         id="tspan4238"
         x="533.15137"
         y="831.2323">HTML</tspan><tspan
         sodipodi:role="line"
         x="533.15137"
         y="868.7323"
         id="tspan4240">CSS</tspan><tspan
         sodipodi:role="line"
         x="533.15137"
         y="906.2323"
         id="tspan4242">JavaScript</tspan></text>
    <g
       sodipodi:type="inkscape:box3d"
       id="g4244"
       style="fill:#0000ff;stroke:none;stroke-opacity:1"
       inkscape:perspectiveID="#perspective4258"
       inkscape:corner0="0.21218253 : -0.71140549 : 0 : 1"
       inkscape:corner7="0.021840321 : -1.0032704 : 0.25 : 1">
      <path
         sodipodi:type="inkscape:box3dside"
         id="path4254"
         style="fill:#afafde;fill-rule:evenodd;stroke:none;stroke-width:1px;stroke-linecap:butt;stroke-linejoin:round;stroke-opacity:1"
         inkscape:box3dsidetype="13"
         d="M 185.99999,834.76367 322,934.36221 499.68341,809.68321 363.80606,743.34406 Z"
         points="322,934.36221 499.68341,809.68321 363.80606,743.34406 185.99999,834.76367 " />
      <path
         sodipodi:type="inkscape:box3dside"
         id="path4246"
         style="fill:#353564;fill-rule:evenodd;stroke:none;stroke-width:1px;stroke-linecap:butt;stroke-linejoin:round;stroke-opacity:1"
         inkscape:box3dsidetype="6"
         d="m 185.99999,702.36221 0,132.40146 177.80607,-91.41961 0,-109.76382 z"
         points="185.99999,834.76367 363.80606,743.34406 363.80606,633.58024 185.99999,702.36221 " />
      <path
         sodipodi:type="inkscape:box3dside"
         id="path4256"
         style="fill:#e9e9ff;fill-rule:evenodd;stroke:none;stroke-width:1px;stroke-linecap:butt;stroke-linejoin:round;stroke-opacity:1"
         inkscape:box3dsidetype="11"
         d="m 363.80606,633.58024 135.87735,49.91202 0,126.19095 -135.87735,-66.33915 z"
         points="499.68341,683.49226 499.68341,809.68321 363.80606,743.34406 363.80606,633.58024 " />
      <path
         sodipodi:type="inkscape:box3dside"
         id="path4248"
         style="fill:#4d4d9f;fill-rule:evenodd;stroke:none;stroke-width:1px;stroke-linecap:butt;stroke-linejoin:round;stroke-opacity:1"
         inkscape:box3dsidetype="5"
         d="M 185.99999,702.36221 322,777.29782 499.68341,683.49226 363.80606,633.58024 Z"
         points="322,777.29782 499.68341,683.49226 363.80606,633.58024 185.99999,702.36221 " />
      <path
         sodipodi:type="inkscape:box3dside"
         id="path4252"
         style="fill:#d7d7ff;fill-rule:evenodd;stroke:none;stroke-width:1px;stroke-linecap:butt;stroke-linejoin:round;stroke-opacity:1"
         inkscape:box3dsidetype="14"
         d="m 322,777.29782 0,157.06439 177.68341,-124.679 0,-126.19095 z"
         points="322,934.36221 499.68341,809.68321 499.68341,683.49226 322,777.29782 " />
      <path
         sodipodi:type="inkscape:box3dside"
         id="path4250"
         style="fill:#8686bf;fill-rule:evenodd;stroke:none;stroke-width:1px;stroke-linecap:butt;stroke-linejoin:round;stroke-opacity:1"
         inkscape:box3dsidetype="3"
         d="M 185.99999,702.36221 322,777.29782 322,934.36221 185.99999,834.76367 Z"
         points="322,777.29782 322,934.36221 185.99999,834.76367 185.99999,702.36221 " />
    </g>
    <text
       xml:space="preserve"
       style="font-style:normal;font-weight:normal;font-size:40px;line-height:125%;font-family:sans-serif;letter-spacing:0px;word-spacing:0px;fill:#280b0b;fill-opacity:1;stroke:none;stroke-width:1px;stroke-linecap:butt;stroke-linejoin:miter;stroke-opacity:1"
       x="74.137085"
       y="1048.3622"
       id="text4260"
       sodipodi:linespacing="125%"><tspan
         sodipodi:role="line"
         id="tspan4262"
         x="74.137085"
         y="1048.3622">Client- Computer in Front of us</tspan></text>
    <path
       style="fill:#008000;stroke:none;stroke-opacity:1"
       id="path4266"
       d="m 320.54262,227.80566 c -5.01194,3.57468 -8.28773,8.87259 -11.7446,13.85017 -3.46031,4.95852 -6.3159,10.25553 -8.86086,15.72724 -2.07982,4.39695 -2.4593,9.21668 -2.79977,13.99106 -0.17702,6.60233 2.69244,12.58091 5.71576,18.26558 3.14756,6.27773 8.47176,10.62014 13.71351,15.06764 5.48722,4.368 11.95252,6.4663 18.54944,8.43064 5.97814,1.65048 12.14429,2.25632 18.31648,2.53281 5.07418,0.15019 10.15129,0.12198 15.2269,0.0903 5.2025,1.14997 10.13835,3.14709 15.27959,4.49409 4.81685,1.17617 9.78283,1.34976 14.7156,1.46454 0.83964,0.0134 1.67928,0.0269 2.51892,0.0403 0,0 -23.77575,17.20372 -23.77575,17.20372 l 0,0 c -0.8593,-0.0195 -1.7186,-0.039 -2.57789,-0.0586 -5.071,-0.24883 -10.16527,-0.61511 -15.06112,-2.06491 -4.9012,-1.4398 -9.73125,-3.42495 -14.86823,-3.80257 -5.08436,-0.0108 -10.17419,0.0237 -15.25099,-0.29597 -6.2822,-0.467 -12.51237,-1.38893 -18.56838,-3.18427 -6.91401,-2.09484 -13.48213,-4.82011 -19.11107,-9.49202 -5.53653,-4.69186 -11.11474,-9.26963 -14.38605,-15.93477 -3.29385,-6.07942 -6.18197,-12.57335 -6.6007,-19.5693 0.0854,-5.05495 0.44537,-10.21552 2.2769,-14.97712 2.48757,-5.67035 5.43759,-11.08758 8.83743,-16.26616 3.32015,-5.01826 6.56516,-10.38174 10.97729,-14.48552 0,0 27.47759,-11.02697 27.47759,-11.02697 z"
       inkscape:connector-curvature="0" />
    <path
       style="fill:#ff0000;stroke:none;stroke-opacity:1"
       id="path4268"
       d="m 351.2386,847.02517 c 3.82064,-6.26156 7.85001,-12.4226 12.34117,-18.22632 10.53218,-12.8499 24.34505,-18.36631 39.12977,-26.88944 5.57008,-2.27716 11.31777,-4.0984 17.21684,-5.28902 0.84965,-0.12881 1.71276,-0.18822 2.54894,-0.38643 1.8931,-0.44874 3.69658,-1.2209 5.57408,-1.73097 2.98694,-0.81147 6.02625,-1.3583 9.07415,-1.87459 5.245,-0.59286 10.62062,-1.27821 15.87863,-0.57706 6.20537,1.38387 11.02009,5.66412 15.27223,10.16683 5.20574,5.19982 8.36766,11.66655 10.57135,18.59222 2.10666,5.8116 3.04041,11.32684 8.37645,15.00268 4.20442,2.20327 8.71994,2.00293 13.25581,1.32686 2.52116,-0.36851 5.06251,-0.43104 7.50985,-1.21107 7.23109,-2.30472 36.24395,-20.19797 -18.42222,10.96338 4.91114,-2.87996 9.3647,-6.44179 14.06486,-9.64054 0,0 27.3376,-10.63269 27.3376,-10.63269 l 0,0 c -4.90157,2.92579 -9.26488,6.5964 -14.02595,9.73268 -18.11103,10.38536 -23.16885,16.80618 -40.05279,18.31414 -5.11172,0.34402 -10.18039,-0.20864 -14.50602,-3.20077 -5.5729,-4.7549 -6.66472,-9.99614 -9.09447,-16.65257 -1.95147,-6.52085 -4.86159,-12.60601 -9.81446,-17.41301 -4.10048,-3.92838 -8.51079,-7.74367 -14.40075,-8.27217 -5.11908,-0.16628 -10.25301,0.24532 -15.29951,1.11902 -5.79103,1.13877 -11.38127,3.00285 -17.17578,4.11204 -5.74381,1.38945 -11.42027,3.21501 -16.70686,5.88423 43.49901,-25.55567 18.60059,-12.50893 10.46574,-2.83496 -4.69436,5.33039 -8.46368,11.37209 -12.16045,17.42079 0,0 -26.95821,12.19674 -26.95821,12.19674 z"
       inkscape:connector-curvature="0" />
    <path
       style="fill:#800080;stroke:none;stroke-opacity:1"
       id="path4270"
       d="m 359.08304,839.28095 c 3.63181,-4.67779 7.67328,-9.00883 11.72202,-13.32276 4.40693,-4.89399 9.28873,-9.30509 14.3674,-13.48478 11.81234,-8.92626 24.22748,-18.49006 39.09805,-20.46514 6.49962,-0.9255 10.41339,-0.13224 16.10505,3.13744 6.13134,3.63218 10.16813,8.06357 14.02449,13.92793 3.47847,5.24873 5.27178,11.25839 6.16207,17.43139 0.9043,5.55912 0.36094,11.08218 -0.2789,16.62553 -0.68753,5.42531 -0.97318,10.89086 -1.1257,16.35409 -0.27958,4.93862 0.18129,9.84869 1.2069,14.67788 0.86361,4.93295 2.60508,9.52755 6.293,12.99411 3.65729,2.47834 8.26917,2.49318 12.53579,2.65209 5.00772,0.0855 9.95529,0.40264 14.77991,-1.09366 0.76298,-0.3588 1.53431,-0.70036 2.28893,-1.07642 1.69725,-0.84581 6.58949,-3.75708 4.93964,-2.82216 -39.09083,22.15151 -26.11083,15.87184 -17.72018,9.35105 4.16445,-3.81528 8.33982,-7.6451 12.09287,-11.87238 3.35065,-4.04117 7.02061,-7.80201 10.19882,-11.98236 1.88208,-2.96223 0.96857,-1.45338 2.73841,-4.52782 0,0 26.77104,-11.93815 26.77104,-11.93815 l 0,0 c -1.7766,3.15306 -0.89762,1.55702 -2.63562,4.78885 -2.90384,4.4553 -6.63528,8.17421 -10.0514,12.23344 -3.7138,4.42696 -7.94297,8.27448 -11.98681,12.39123 -11.78337,9.96001 -25.49212,18.01224 -39.9702,23.24332 -5.06089,0.83681 -10.18365,0.64324 -15.29554,0.43274 -4.91818,-0.35618 -9.95505,-0.99823 -13.77071,-4.4362 -3.75311,-4.0703 -6.0682,-8.97113 -7.07559,-14.42947 -1.18165,-5.01616 -1.79017,-10.18742 -1.50066,-15.34249 0.13642,-5.5543 0.40792,-11.10121 1.05179,-16.62386 0.66646,-5.31079 1.31971,-10.60288 0.59228,-15.95516 -0.70482,-5.77664 -2.06393,-11.42858 -5.39161,-16.31659 -3.57995,-5.15375 -7.5461,-9.76673 -13.26106,-12.68309 -5.38773,-2.43744 -9.41071,-2.5422 -15.18878,-1.46608 -1.84298,0.39752 -2.82797,0.53604 -4.60296,1.2203 -0.76041,0.29314 -2.92175,1.43767 -2.22192,1.02005 41.3593,-24.68113 26.70178,-16.27789 18.33819,-10.29599 -5.29205,3.87452 -10.15862,8.33349 -14.64375,13.11505 -3.92518,4.12038 -7.86856,8.24924 -11.31593,12.7867 0,0 -27.26933,11.75137 -27.26933,11.75137 z"
       inkscape:connector-curvature="0" />
    <path
       style="fill:#00ff00;stroke:none;stroke-opacity:1"
       id="path4272"
       d="m 365.25887,837.07919 c 10.86794,-11.44876 23.94529,-16.82689 38.1652,-24.97197 5.48412,-2.30658 10.8131,-4.97085 16.22669,-7.46099 4.73186,-1.90455 9.5677,-3.36409 14.59652,-4.22215 4.88428,-0.51082 9.88721,-1.06377 14.77096,-0.37619 5.11541,1.35206 9.26624,4.70642 12.90785,8.41049 3.95513,3.8146 6.36259,8.45687 7.93172,13.65647 1.28132,5.32953 1.28626,10.71768 0.744,16.12976 -1.13255,5.74941 -2.05682,11.55798 -3.69604,17.18967 -1.76984,5.73503 -4.9898,10.83723 -7.72701,16.13621 -2.83492,4.6046 -5.68729,9.20403 -7.84777,14.17093 -1.71048,4.65865 -1.93975,9.65116 -2.71123,14.5113 -0.7781,4.75521 -1.41368,9.56562 -1.22616,14.3905 0.83094,5.08455 4.39347,9.09335 7.44797,13.05106 3.56653,4.99229 8.48948,8.0368 14.38219,9.40916 4.9434,0.85329 9.98101,0.77479 14.97912,0.74593 5.28244,0.19924 9.58629,0.12077 14.38884,-2.2516 9.11282,-4.47122 22.73316,-12.28379 -18.74908,10.97397 -0.8411,0.47158 1.61823,-1.05095 2.39677,-1.61991 1.8427,-1.34663 3.06658,-2.45448 4.80048,-3.94039 5.2502,-4.77424 10.49096,-9.59068 14.99231,-15.08999 2.37471,-2.79995 4.08066,-5.91654 5.35618,-9.33214 0,0 26.53986,-12.47509 26.53986,-12.47509 l 0,0 c -1.09829,3.77911 -2.47422,7.29534 -5.10156,10.32037 -4.28778,5.75716 -9.56687,10.62476 -14.7464,15.57024 -11.21651,10.23091 -24.4708,18.0257 -38.57502,23.73786 -4.91738,1.52578 -9.94301,1.46426 -15.05776,1.35899 -5.16368,-0.0496 -10.38043,-0.0718 -15.40383,-1.43475 -6.18477,-2.05339 -11.33284,-5.75578 -15.21672,-11.0513 -3.52161,-4.40299 -7.4488,-8.73278 -8.54632,-14.44907 -0.45029,-5.00706 0.25257,-10.06047 0.96729,-15.0186 0.87013,-5.02012 1.08331,-10.12849 2.47938,-15.04955 1.73406,-5.21 4.67612,-9.9388 7.69652,-14.50018 2.80535,-5.15517 5.88348,-10.20459 8.07792,-15.65056 1.64235,-5.49554 2.60214,-11.11432 3.89382,-16.69994 0.57394,-5.04005 0.74838,-10.07497 -0.34163,-15.07602 -1.26547,-4.8275 -3.46478,-8.92979 -7.15673,-12.37488 -3.30447,-3.23861 -7.09734,-6.10834 -11.82535,-6.67844 -4.76516,-0.16686 -9.55965,0.14003 -14.24833,1.03088 -4.83246,1.08692 -9.54576,2.67908 -14.0645,4.71245 -5.37006,2.56233 -10.83934,4.91074 -16.15975,7.57038 43.37213,-25.33133 19.97559,-13.57244 12.05574,-4.70076 0,0 -27.39614,11.34785 -27.39614,11.34785 z"
       inkscape:connector-curvature="0" />
    <path
       style="fill:#ff0000;stroke:none;stroke-opacity:1"
       id="path4274"
       d="m 198.25946,257.42078 c -8.85591,0.54071 -17.63515,1.81619 -26.41381,3.05951 -10.10548,1.00545 -19.46708,4.27465 -28.6354,8.44963 42.12394,-26.16035 12.0872,-5.9108 2.84106,1.15213 -7.52487,5.20246 -12.6756,10.49801 -16.8112,18.65993 -3.27282,7.47144 -3.92476,15.57479 -4.30718,23.61507 -0.32726,10.59194 1.70831,20.8737 4.09441,31.12718 2.86804,11.71543 7.59936,22.85754 12.84727,33.68001 4.85203,9.34646 11.02456,17.87927 16.92229,26.57158 4.61002,6.30663 10.20097,11.78987 15.65432,17.35158 6.70296,5.99983 13.32842,11.98799 19.25628,18.7685 6.05546,6.96199 12.03153,14.00523 17.71169,21.27794 4.86263,5.8634 7.71216,12.8844 9.74968,20.1452 1.73409,8.4357 1.61209,17.09332 1.66354,25.66293 0.0977,10.0894 0.11764,20.16661 -0.5193,30.23832 -0.86155,8.28459 -2.04445,16.53614 -3.88864,24.66062 -1.62146,7.55771 -5.19915,14.37389 -8.66707,21.19823 -2.82427,5.44667 -6.13411,10.62404 -9.29547,15.8803 -3.00097,5.33146 -5.78045,10.76296 -8.9098,16.02495 -3.21226,5.82119 -6.64948,11.51661 -9.87512,17.32916 -2.86273,5.94659 -6.3115,11.58451 -9.18513,17.52243 -2.23537,5.35517 -3.25361,11.14388 -4.21681,16.84262 -0.83082,5.42854 -1.18929,10.92156 -1.02506,16.40855 0.85893,5.76993 3.12265,11.25827 5.49286,16.55862 1.83713,5.77343 4.6918,11.00161 7.77913,16.17206 2.69693,4.64754 6.20928,8.70983 9.82688,12.65079 2.33125,2.36099 4.73194,4.94149 7.67056,6.57688 1.50777,0.83909 3.11725,1.48384 4.63759,2.29994 5.42277,3.20997 11.25141,5.67778 17.12016,7.9478 2.64515,0.69373 5.11816,1.80147 7.56942,2.9842 0,0 -24.45874,16.20101 -24.45874,16.20101 l 0,0 c -2.42891,-1.07015 -4.8907,-2.03661 -7.39242,-2.92662 -5.88285,-2.46492 -11.7456,-4.99899 -17.30079,-8.15222 -4.93858,-2.4366 -9.32743,-5.45485 -12.89202,-9.73476 -3.74338,-4.10264 -7.36779,-8.34158 -10.11499,-13.19821 -3.04826,-5.30081 -6.04355,-10.60344 -7.95029,-16.45377 -2.47641,-5.62515 -4.7646,-11.43433 -5.97043,-17.47322 -0.55327,-5.66279 0.0632,-11.37652 0.75125,-17.01009 0.92313,-5.93331 1.94898,-11.90714 3.90919,-17.59657 2.76266,-6.05349 6.30349,-11.68896 9.19451,-17.67919 2.99342,-5.92746 6.73353,-11.45531 9.70216,-17.40567 3.11997,-5.28316 6.28156,-10.50523 8.87717,-16.07266 3.29767,-5.17354 6.35351,-10.48825 9.54429,-15.72415 3.40561,-6.6828 7.30247,-13.19916 9.02615,-20.58622 1.90173,-8.04512 3.31009,-16.16612 4.3326,-24.37102 0.76851,-10.00445 0.79771,-20.00857 0.64238,-30.04076 -0.12931,-8.28537 -0.12608,-16.65149 -1.69906,-24.81792 -1.78793,-6.93141 -4.37389,-13.6349 -8.91546,-19.26573 -5.72978,-7.15537 -11.39998,-14.36102 -17.54358,-21.17117 -6.06068,-6.58851 -12.58349,-12.67253 -19.35097,-18.5315 -5.67636,-5.59942 -11.21695,-11.36704 -15.78678,-17.93247 -5.81769,-8.8866 -12.00733,-17.55404 -16.79598,-27.06716 -5.52356,-10.92011 -10.03684,-22.40685 -13.1206,-34.26064 -2.55355,-10.40571 -5.025137,-20.78365 -4.938426,-31.57596 0.278242,-8.36731 0.806385,-16.77657 3.858206,-24.67735 3.77563,-8.68584 8.33104,-14.54851 16.26187,-19.90224 14.51671,-11.5329 29.78659,-21.61899 46.59968,-29.77917 9.29086,-3.93058 18.8609,-6.62616 28.93155,-7.68954 9.04306,-1.28873 18.09859,-2.46127 27.1657,-3.56037 0,0 -23.65332,17.63868 -23.65332,17.63868 z"
       inkscape:connector-curvature="0" />
    <path
       style="fill:#ff0000;stroke:none;stroke-opacity:1"
       id="path4276"
       d="m 209.48549,457.74211 c 2.4779,4.08 4.81193,8.2409 7.15338,12.40016 2.97854,4.52485 5.99497,9.01444 8.6723,13.72998 3.18731,4.94987 5.59119,10.34271 7.59605,15.86482 1.1956,5.19046 1.46925,9.25682 5.46113,13.08534 3.70453,2.60543 8.40263,2.73674 12.77499,2.94362 5.8647,0.13277 11.73154,0.0977 17.59729,0.083 6.45036,0.45126 12.07678,-1.61731 17.39615,-5.05372 -41.83777,27.53851 -21.14172,11.77805 -12.05035,4.39637 12.99189,-9.20888 27.00386,-16.93724 41.27941,-23.97336 5.49292,-1.82734 10.77848,-4.0754 16.07148,-6.42695 5.15149,-2.94914 11.03866,-3.54044 16.6549,-5.02988 5.11318,-1.24929 10.34043,-1.68798 15.58071,-1.91602 6.02406,-0.22333 11.69642,2.59652 17.20289,4.73254 5.50873,2.11814 10.58195,4.99253 15.49649,8.22989 5.32587,3.20997 8.64746,8.11405 11.78228,13.3133 2.96062,5.94095 5.75826,11.8985 9.14564,17.61523 3.61076,6.70317 9.83214,10.61257 16.09657,14.4687 6.57052,3.89557 13.89565,6.24995 21.27397,8.07229 5.55017,0.87641 11.0308,2.15088 16.61011,2.85395 4.971,0.531 9.975,0.58929 14.96907,0.61865 5.08768,0.19073 10.08619,0.0108 15.118,-0.71023 5.12322,-0.79638 10.26682,-0.79374 15.26522,-2.23343 5.68187,-1.50937 11.49451,-2.41105 17.26923,-3.47804 5.67489,-0.77571 11.31059,-1.34766 16.83885,-2.90986 5.61742,-2.8543 11.40035,-5.27804 17.28168,-7.51891 5.03991,-2.21921 10.3485,-3.43433 15.60206,-4.95316 4.99493,-2.43567 10.12219,-4.48623 15.48441,-5.98915 6.70024,-1.59719 12.8143,-4.78772 19.27369,-7.07984 6.03958,-3.0911 12.88389,-3.37519 19.04696,-6.04471 0.99436,-0.42816 2.00426,-0.82188 2.98307,-1.2845 3.02954,-1.43187 2.5186,-1.3499 5.362,-3.02659 0.81981,-0.48343 3.31182,-1.87731 2.48731,-1.40193 -7.57188,4.36568 -30.26814,17.49578 -22.72954,13.07288 9.06047,-5.31578 18.19688,-10.50108 27.29531,-15.75162 4.4593,-2.05126 8.72967,-4.39375 13.26035,-6.30852 4.75389,-2.2827 9.78171,-3.86334 14.3776,-6.48924 4.23668,-1.95083 8.42457,-4.02773 12.71331,-5.86464 4.26826,-1.19494 8.03864,-3.4421 11.94179,-5.44428 0,0 -22.94227,18.42152 -22.94227,18.42152 l 0,0 c -3.89005,2.0772 -7.97275,3.66881 -12.06032,5.3113 -4.18264,1.9644 -8.44098,3.77535 -12.52574,5.94161 -4.76518,2.27526 -9.75133,4.04226 -14.50349,6.3512 -4.41823,2.06607 -8.75182,4.29801 -13.08852,6.52769 7.62247,-4.41835 30.47459,-17.69974 22.86743,-13.25507 -12.35144,7.21662 -24.89756,15.70423 -38.38438,21.16969 -6.3229,2.05363 -12.95244,3.11478 -19.00746,6.00607 -6.42301,2.53427 -12.76976,5.25969 -19.46796,7.01844 -5.3027,1.80683 -10.35172,4.18833 -15.64588,5.98572 -5.23294,1.34267 -10.27815,3.18179 -15.32153,5.11375 -5.91229,2.31045 -11.55993,5.23184 -17.56519,7.28788 -5.58329,1.24046 -11.26348,1.71165 -16.88771,2.72324 -5.76364,1.09941 -11.55442,2.07916 -17.22222,3.62356 -5.12328,0.99373 -10.33669,1.25412 -15.4986,2.00958 -5.11821,0.56487 -10.24992,0.48898 -15.39393,0.4104 -5.0628,-0.0924 -10.13613,-0.20642 -15.15532,-0.94598 -5.58643,-0.86477 -11.14056,-2.03207 -16.65305,-3.26385 -7.50819,-2.19226 -14.93421,-4.76273 -21.67803,-8.80306 -6.65004,-4.04857 -12.86639,-8.75875 -16.77562,-15.68039 -3.47884,-5.65354 -6.50954,-11.49772 -9.32194,-17.51137 -2.91707,-4.81027 -6.17646,-9.24308 -11.11886,-12.1601 -4.81675,-3.026 -9.81294,-5.70188 -15.12329,-7.77181 -5.329,-2.07486 -10.77926,-4.22633 -16.61625,-3.62002 -5.14081,0.35066 -10.25326,1.0224 -15.24799,2.32958 -5.62755,1.22304 -11.14624,2.68484 -16.27332,5.40969 -5.26357,2.34864 -10.73141,4.12022 -15.97895,6.49037 -9.1275,4.44478 -23.28501,12.86783 16.43956,-9.97847 1.84584,-1.06157 -3.57396,2.31641 -5.38471,3.43678 -0.75008,0.46411 -1.52903,0.87986 -2.29354,1.31979 -11.91913,9.91633 -22.53603,18.60724 -37.89284,24.96894 -5.74101,2.92023 -11.7564,4.19526 -18.22891,3.78936 -5.96272,0.0396 -11.9341,0.19362 -17.89097,-0.12916 -5.01344,-0.43033 -10.12739,-1.20059 -14.00404,-4.70724 -4.23175,-4.59243 -4.965,-8.25261 -6.02808,-14.24133 -1.79848,-5.41931 -4.14179,-10.67275 -7.34599,-15.41718 -2.61495,-4.75765 -5.72481,-9.17197 -8.7017,-13.70131 -2.28165,-4.0459 -4.44487,-8.17722 -7.24972,-11.89789 0,0 25.53557,-15.15407 25.53557,-15.15407 z"
       inkscape:connector-curvature="0" />
    <text
       xml:space="preserve"
       style="font-style:normal;font-weight:normal;font-size:40px;line-height:125%;font-family:sans-serif;letter-spacing:0px;word-spacing:0px;fill:#000080;fill-opacity:1;stroke:none;stroke-width:1px;stroke-linecap:butt;stroke-linejoin:miter;stroke-opacity:1"
       x="458"
       y="450.36221"
       id="text4278"
       sodipodi:linespacing="125%"><tspan
         sodipodi:role="line"
         id="tspan4280"
         x="458"
         y="450.36221">Through Internet</tspan></text>
  </g>
</svg>
